<svg width="27" height="27" viewBox="0 0 27 27" fill="none" xmlns="http://www.w3.org/2000/svg">
<g clip-path="url(#clip0_2_2)">
<path d="M26.3976 8.3268L14.2477 0.2268C14.0262 0.0791137 13.766 0.0002066 13.4998 0C13.2335 0.0002066 12.9733 0.0791137 12.7519 0.2268L0.601915 8.3268C0.45429 8.42507 0.327473 8.55147 0.228712 8.69877C0.12995 8.84607 0.0611784 9.01138 0.0263261 9.18527C-0.00852615 9.35915 -0.00877594 9.5382 0.0255907 9.71219C0.0599572 9.88617 0.128267 10.0517 0.226617 10.1992C0.353987 10.3801 0.521903 10.5286 0.716935 10.6329C0.911968 10.7372 1.1287 10.7944 1.34981 10.8H2.69981V25.65C2.69981 26.008 2.84204 26.3514 3.09521 26.6046C3.34838 26.8578 3.69176 27 4.0498 27H22.9497C23.1302 27.0003 23.3088 26.964 23.4749 26.8933C23.6183 26.7975 23.7614 26.7012 23.9042 26.6044C24.1574 26.3513 24.2996 26.008 24.2997 25.65V10.8H25.6497C25.9395 10.8001 26.2215 10.7069 26.4543 10.5343C26.687 10.3616 26.858 10.1187 26.942 9.84141C27.026 9.5641 27.0186 9.26711 26.9208 8.99436C26.823 8.7216 26.6387 8.48755 26.3976 8.3268ZM10.7998 24.3V14.85H16.1997V24.3H10.7998ZM18.8997 24.3V13.5C18.8997 13.142 18.7575 12.7986 18.5043 12.5454C18.2512 12.2922 17.9078 12.15 17.5497 12.15H9.44978C9.09173 12.15 8.74836 12.2922 8.49519 12.5454C8.24201 12.7986 8.09978 13.142 8.09978 13.5V24.3H5.39979V8.37L13.4998 2.97L21.5997 8.37V24.3H18.8997Z" fill="#767C89"/>
</g>
<defs>
<clipPath id="clip0_2_2">
<rect width="27" height="27" fill="white"/>
</clipPath>
</defs>
</svg>
