<svg width="35" height="35" viewBox="0 0 35 35" fill="none" xmlns="http://www.w3.org/2000/svg">
<path d="M24.2083 6.12499C23.4792 5.68749 22.6042 5.97916 22.1667 6.70832C21.7292 7.43749 22.0208 8.31249 22.75 8.74999C25.8125 10.6458 27.8542 14 27.8542 17.5C27.8542 23.1875 23.3333 27.7083 17.6458 27.7083C11.9583 27.7083 7.4375 23.1875 7.4375 17.5C7.4375 13.8542 9.47917 10.5 12.5417 8.60416C13.125 8.16666 13.4167 7.29166 12.9792 6.70832C12.5417 5.97916 11.6667 5.68749 10.9375 6.12499C6.85417 8.45832 4.375 12.8333 4.375 17.5C4.375 24.7917 10.2083 30.625 17.5 30.625C24.7917 30.625 30.625 24.7917 30.625 17.5C30.625 12.8333 28.1458 8.60416 24.2083 6.12499Z" fill="#767C89"/>
<path d="M17.5 18.9584C18.375 18.9584 18.9583 18.375 18.9583 17.5V4.37502C18.9583 3.50002 18.375 2.91669 17.5 2.91669C16.625 2.91669 16.0417 3.50002 16.0417 4.37502V17.5C16.0417 18.375 16.625 18.9584 17.5 18.9584Z" fill="#767C89"/>
</svg>
