<svg width="27" height="27" viewBox="0 0 27 27" fill="none" xmlns="http://www.w3.org/2000/svg">
<path d="M21.3125 0C23.5216 0 25.3125 1.79086 25.3125 4V23C25.3125 25.2091 23.5216 27 21.3125 27H5.6875C3.47836 27 1.6875 25.2091 1.6875 23V4C1.6875 1.79086 3.47836 0 5.6875 0H21.3125ZM23.625 18.5625H3.375V23.3125C3.375 24.4171 4.27043 25.3125 5.375 25.3125H21.625C22.7296 25.3125 23.625 24.4171 23.625 23.3125V18.5625ZM16.0313 21.0938V22.7813H10.9688V21.0938H16.0313ZM23.625 10.125H3.375V16.875H23.625V10.125ZM16.0313 12.6563V14.3438H10.9688V12.6563H16.0313ZM23.625 3.6875C23.625 2.58293 22.7296 1.6875 21.625 1.6875H5.375C4.27043 1.6875 3.375 2.58293 3.375 3.6875V8.4375H23.625V3.6875ZM16.0313 4.21875V5.90625H10.9688V4.21875H16.0313Z" fill="#767C89"/>
</svg>
