<svg width="27" height="27" viewBox="0 0 27 27" fill="none" xmlns="http://www.w3.org/2000/svg">
<g clip-path="url(#clip0_2_21)">
<path d="M1 18.1875V21.0003C1 22.7505 1 23.6252 1.34061 24.2936C1.6402 24.8816 2.11792 25.3602 2.70594 25.6597C3.37375 26 4.24842 26 5.99517 26H13.5M1 18.1875V8.8125M1 18.1875H13.5M13.5 26V18.1875M13.5 26H21.0056C22.7523 26 23.6258 26 24.2936 25.6597C24.8816 25.3602 25.3602 24.8816 25.6597 24.2936C26 23.6258 26 22.7523 26 21.0056V18.1875M1 8.8125V6.00031C1 4.25014 1 3.37441 1.34061 2.70594C1.6402 2.11792 2.11792 1.6402 2.70594 1.34061C3.37441 1 4.25014 1 6.00031 1H13.5M1 8.8125H13.5M13.5 18.1875V8.8125M13.5 18.1875H26M13.5 1H21.0003C22.7505 1 23.6252 1 24.2936 1.34061C24.8816 1.6402 25.3602 2.11792 25.6597 2.70594C26 3.37375 26 4.24842 26 5.99517V8.8125M13.5 1V8.8125M13.5 8.8125H26M26 8.8125V18.1875" stroke="#767C89" stroke-width="2" stroke-linecap="round" stroke-linejoin="round"/>
</g>
<defs>
<clipPath id="clip0_2_21">
<rect width="27" height="27" fill="white"/>
</clipPath>
</defs>
</svg>
