<svg width="27" height="27" viewBox="0 0 27 27" fill="none" xmlns="http://www.w3.org/2000/svg">
<g clip-path="url(#clip0_2_33)">
<path d="M19.6703 22.0236L14.3581 19.0806C16.3325 17.5272 16.8691 14.4745 16.8691 12.7626V9.19941C16.8691 6.84028 13.7346 4.21284 10.5857 4.21284C7.4385 4.21284 4.22044 6.84028 4.22044 9.19941V12.7626C4.22044 14.3193 4.87856 17.4673 6.87319 19.0671L1.42425 22.0227C1.42425 22.0227 0 22.6572 0 23.4478V25.5859C0 26.3731 0.638719 27.011 1.42425 27.011H19.6703C20.4559 27.011 21.0946 26.3723 21.0946 25.5859V23.4478C21.0946 22.6091 19.6695 22.0227 19.6695 22.0227L19.6703 22.0236ZM19.4071 25.3252H1.6875V23.8165C1.80816 23.7279 1.97775 23.6258 2.11106 23.5651C2.15072 23.5474 2.19038 23.528 2.22834 23.506L7.67813 20.5504C8.17509 20.2804 8.50416 19.7809 8.55478 19.2181C8.60541 18.6553 8.37 18.1043 7.92956 17.7508C6.51459 16.616 5.90794 14.1041 5.90794 12.7634V9.20025C5.90794 7.98778 8.19281 5.90119 10.5857 5.90119C13.0233 5.90119 15.1816 7.95994 15.1816 9.20025V12.7634C15.1816 14.0847 14.7715 16.6084 13.3152 17.7542C12.8697 18.1052 12.6293 18.657 12.6765 19.2215C12.7238 19.7859 13.0528 20.2905 13.5498 20.5622L18.862 23.5052C18.9084 23.5305 18.9683 23.5583 19.0173 23.5803C19.1422 23.6334 19.2949 23.7212 19.4071 23.7988V25.3252ZM25.5758 17.8225L20.1842 14.8795C22.1586 13.3262 22.7745 10.2735 22.7745 8.56153V4.99838C22.7745 2.63925 19.5615 -0.0143433 16.4126 -0.0143433C14.3665 -0.0143433 12.2749 1.09856 11.0573 2.52281C11.7517 2.56584 12.517 2.56669 13.1785 2.77763C14.0678 2.08491 15.1917 1.674 16.4126 1.674C18.8502 1.674 21.087 3.75806 21.087 4.99922V8.56238C21.087 9.88369 20.5976 12.4073 19.1422 13.5532C18.6958 13.9042 18.4562 14.456 18.5034 15.0204C18.5507 15.5858 18.8789 16.0895 19.3767 16.3612L24.7683 19.3042C24.8147 19.3295 24.8746 19.3573 24.9235 19.3793C25.0484 19.4324 25.2011 19.5202 25.3133 19.5978V21.0988H21.9071C22.4218 21.4869 22.5771 22.0421 22.777 22.7863H25.5774C26.363 22.7863 27.0017 22.1476 27.0017 21.3612V19.2493C27.0008 18.4098 25.5758 17.8225 25.5758 17.8225Z" fill="#767C89"/>
</g>
<defs>
<clipPath id="clip0_2_33">
<rect width="27" height="27" fill="white"/>
</clipPath>
</defs>
</svg>
